<svg xmlns="http://www.w3.org/2000/svg" width="54" height="54" viewBox="0 0 54 54">
  <g id="Group_141" data-name="Group 141" transform="translate(-125 -642)">
    <g id="Rectangle_51" data-name="Rectangle 51" transform="translate(125 642)" fill="#fff" stroke="#FF6347" stroke-width="2">
      <rect width="54" height="54" rx="10" stroke="none"/>
      <rect x="1" y="1" width="52" height="52" rx="9" fill="none"/>
    </g>
    <path id="Union_1" data-name="Union 1" d="M829.659-1135.49a13.852,13.852,0,0,1-1.659-6.594,13.841,13.841,0,0,1,1.556-6.4,13.911,13.911,0,0,1,12.36-7.516,13.859,13.859,0,0,1,8.882,3.2l-4.508,3.691a8.227,8.227,0,0,0-4.374-1.251,8.276,8.276,0,0,0-7.826,5.583h0a8.283,8.283,0,0,0-.446,2.689,8.234,8.234,0,0,0,.525,2.9,8.275,8.275,0,0,0,7.748,5.369,8.219,8.219,0,0,0,4.178-1.132h0a8.3,8.3,0,0,0,3.568-4.235h-7.44v-5.505h13.366a13.894,13.894,0,0,1,.243,2.6,13.934,13.934,0,0,1-.3,2.905,13.907,13.907,0,0,1-4.9,7.946h0a13.853,13.853,0,0,1-8.711,3.064A13.912,13.912,0,0,1,829.659-1135.49Z" transform="translate(-690 1811)" fill="#FF6347" stroke="rgba(0,0,0,0)" stroke-miterlimit="10" stroke-width="1"/>
  </g>
</svg>
